%TF.GenerationSoftware,KiCad,Pcbnew,(6.0.11)*%
%TF.CreationDate,2024-02-05T17:50:25-08:00*%
%TF.ProjectId,ForceBoard,466f7263-6542-46f6-9172-642e6b696361,rev?*%
%TF.SameCoordinates,Original*%
%TF.FileFunction,Copper,L1,Top*%
%TF.FilePolarity,Positive*%
%FSLAX46Y46*%
G04 Gerber Fmt 4.6, Leading zero omitted, Abs format (unit mm)*
G04 Created by KiCad (PCBNEW (6.0.11)) date 2024-02-05 17:50:25*
%MOMM*%
%LPD*%
G01*
G04 APERTURE LIST*
G04 Aperture macros list*
%AMRoundRect*
0 Rectangle with rounded corners*
0 $1 Rounding radius*
0 $2 $3 $4 $5 $6 $7 $8 $9 X,Y pos of 4 corners*
0 Add a 4 corners polygon primitive as box body*
4,1,4,$2,$3,$4,$5,$6,$7,$8,$9,$2,$3,0*
0 Add four circle primitives for the rounded corners*
1,1,$1+$1,$2,$3*
1,1,$1+$1,$4,$5*
1,1,$1+$1,$6,$7*
1,1,$1+$1,$8,$9*
0 Add four rect primitives between the rounded corners*
20,1,$1+$1,$2,$3,$4,$5,0*
20,1,$1+$1,$4,$5,$6,$7,0*
20,1,$1+$1,$6,$7,$8,$9,0*
20,1,$1+$1,$8,$9,$2,$3,0*%
G04 Aperture macros list end*
%TA.AperFunction,SMDPad,CuDef*%
%ADD10RoundRect,0.250000X-0.262500X-0.450000X0.262500X-0.450000X0.262500X0.450000X-0.262500X0.450000X0*%
%TD*%
%TA.AperFunction,ComponentPad*%
%ADD11RoundRect,0.250000X0.625000X-0.350000X0.625000X0.350000X-0.625000X0.350000X-0.625000X-0.350000X0*%
%TD*%
%TA.AperFunction,ComponentPad*%
%ADD12O,1.750000X1.200000*%
%TD*%
%TA.AperFunction,ComponentPad*%
%ADD13RoundRect,0.250000X-0.600000X-0.725000X0.600000X-0.725000X0.600000X0.725000X-0.600000X0.725000X0*%
%TD*%
%TA.AperFunction,ComponentPad*%
%ADD14O,1.700000X1.950000*%
%TD*%
%TA.AperFunction,ComponentPad*%
%ADD15RoundRect,0.250000X-0.625000X0.350000X-0.625000X-0.350000X0.625000X-0.350000X0.625000X0.350000X0*%
%TD*%
%TA.AperFunction,Conductor*%
%ADD16C,0.250000*%
%TD*%
G04 APERTURE END LIST*
D10*
%TO.P,R3,2*%
%TO.N,GND*%
X148555000Y-102050000D03*
%TO.P,R3,1*%
%TO.N,3*%
X146730000Y-102050000D03*
%TD*%
%TO.P,R1,1*%
%TO.N,Net-(J1-Pad2)*%
X146790000Y-95250000D03*
%TO.P,R1,2*%
%TO.N,GND*%
X148615000Y-95250000D03*
%TD*%
%TO.P,R2,1*%
%TO.N,2*%
X146760000Y-98640000D03*
%TO.P,R2,2*%
%TO.N,GND*%
X148585000Y-98640000D03*
%TD*%
%TO.P,R4,1*%
%TO.N,4*%
X146797500Y-105400000D03*
%TO.P,R4,2*%
%TO.N,GND*%
X148622500Y-105400000D03*
%TD*%
D11*
%TO.P,J3,1,Pin_1*%
%TO.N,+5V*%
X127100000Y-98110000D03*
D12*
%TO.P,J3,2,Pin_2*%
%TO.N,3*%
X127100000Y-96110000D03*
%TD*%
D13*
%TO.P,J5,1,Pin_1*%
%TO.N,+5V*%
X135200000Y-108690000D03*
D14*
%TO.P,J5,2,Pin_2*%
%TO.N,Net-(J1-Pad2)*%
X137700000Y-108690000D03*
%TO.P,J5,3,Pin_3*%
%TO.N,2*%
X140200000Y-108690000D03*
%TO.P,J5,4,Pin_4*%
%TO.N,3*%
X142700000Y-108690000D03*
%TO.P,J5,5,Pin_5*%
%TO.N,4*%
X145200000Y-108690000D03*
%TO.P,J5,6,Pin_6*%
%TO.N,GND*%
X147700000Y-108690000D03*
%TD*%
D12*
%TO.P,J1,2,Pin_2*%
%TO.N,Net-(J1-Pad2)*%
X155470000Y-97640000D03*
D15*
%TO.P,J1,1,Pin_1*%
%TO.N,+5V*%
X155470000Y-95640000D03*
%TD*%
D12*
%TO.P,J2,2,Pin_2*%
%TO.N,2*%
X155670000Y-105820000D03*
D15*
%TO.P,J2,1,Pin_1*%
%TO.N,+5V*%
X155670000Y-103820000D03*
%TD*%
D11*
%TO.P,J4,1,Pin_1*%
%TO.N,+5V*%
X126820000Y-105540000D03*
D12*
%TO.P,J4,2,Pin_2*%
%TO.N,4*%
X126820000Y-103540000D03*
%TD*%
D16*
%TO.N,GND*%
X147700000Y-106322500D02*
X147700000Y-108690000D01*
X148622500Y-105400000D02*
X147700000Y-106322500D01*
X148555000Y-105332500D02*
X148622500Y-105400000D01*
X148555000Y-102050000D02*
X148555000Y-105332500D01*
X150530000Y-105400000D02*
X148622500Y-105400000D01*
X152980000Y-107850000D02*
X150530000Y-105400000D01*
X158330000Y-107850000D02*
X152980000Y-107850000D01*
X158610000Y-107570000D02*
X158330000Y-107850000D01*
X158610000Y-101720000D02*
X158610000Y-107570000D01*
X157800000Y-100910000D02*
X158610000Y-101720000D01*
X151840000Y-100910000D02*
X157800000Y-100910000D01*
X149570000Y-98640000D02*
X151840000Y-100910000D01*
X148585000Y-98640000D02*
X149570000Y-98640000D01*
X148615000Y-98610000D02*
X148615000Y-95250000D01*
X148585000Y-98640000D02*
X148615000Y-98610000D01*
%TO.N,2*%
X146760000Y-99270000D02*
X146760000Y-98640000D01*
X147540000Y-100050000D02*
X146760000Y-99270000D01*
X150290000Y-100860000D02*
X149480000Y-100050000D01*
X150290000Y-102390000D02*
X150290000Y-100860000D01*
X153720000Y-105820000D02*
X150290000Y-102390000D01*
X149480000Y-100050000D02*
X147540000Y-100050000D01*
X155670000Y-105820000D02*
X153720000Y-105820000D01*
%TO.N,Net-(J1-Pad2)*%
X147400000Y-93390000D02*
X146790000Y-94000000D01*
X150620000Y-93390000D02*
X147400000Y-93390000D01*
X146790000Y-94000000D02*
X146790000Y-95250000D01*
X154870000Y-97640000D02*
X150620000Y-93390000D01*
X155470000Y-97640000D02*
X154870000Y-97640000D01*
%TO.N,4*%
X145200000Y-109270000D02*
X145200000Y-108690000D01*
X143240000Y-111230000D02*
X145200000Y-109270000D01*
X134090000Y-111230000D02*
X143240000Y-111230000D01*
X132560000Y-108120000D02*
X132560000Y-109700000D01*
X127980000Y-103540000D02*
X132560000Y-108120000D01*
X132560000Y-109700000D02*
X134090000Y-111230000D01*
X126820000Y-103540000D02*
X127980000Y-103540000D01*
%TO.N,3*%
X142700000Y-109630000D02*
X142700000Y-108690000D01*
X141880000Y-110450000D02*
X142700000Y-109630000D01*
X134300000Y-110450000D02*
X141880000Y-110450000D01*
X133120000Y-109270000D02*
X134300000Y-110450000D01*
X133120000Y-101855000D02*
X133120000Y-109270000D01*
X127375000Y-96110000D02*
X133120000Y-101855000D01*
X127100000Y-96110000D02*
X127375000Y-96110000D01*
%TO.N,4*%
X145200000Y-106997500D02*
X146797500Y-105400000D01*
X145200000Y-108690000D02*
X145200000Y-106997500D01*
%TO.N,3*%
X142700000Y-105370000D02*
X146020000Y-102050000D01*
X142700000Y-108690000D02*
X142700000Y-105370000D01*
X146020000Y-102050000D02*
X146730000Y-102050000D01*
%TO.N,2*%
X139660000Y-98640000D02*
X146760000Y-98640000D01*
X138610000Y-99690000D02*
X139660000Y-98640000D01*
X138610000Y-104320000D02*
X138610000Y-99690000D01*
X140200000Y-105910000D02*
X138610000Y-104320000D01*
X140200000Y-108690000D02*
X140200000Y-105910000D01*
%TO.N,Net-(J1-Pad2)*%
X137700000Y-96990000D02*
X139440000Y-95250000D01*
X137700000Y-108690000D02*
X137700000Y-96990000D01*
X139440000Y-95250000D02*
X146790000Y-95250000D01*
%TD*%
M02*
