%TF.GenerationSoftware,KiCad,Pcbnew,(6.0.11)*%
%TF.CreationDate,2024-02-05T17:50:25-08:00*%
%TF.ProjectId,ForceBoard,466f7263-6542-46f6-9172-642e6b696361,rev?*%
%TF.SameCoordinates,Original*%
%TF.FileFunction,Copper,L2,Bot*%
%TF.FilePolarity,Positive*%
%FSLAX46Y46*%
G04 Gerber Fmt 4.6, Leading zero omitted, Abs format (unit mm)*
G04 Created by KiCad (PCBNEW (6.0.11)) date 2024-02-05 17:50:25*
%MOMM*%
%LPD*%
G01*
G04 APERTURE LIST*
G04 Aperture macros list*
%AMRoundRect*
0 Rectangle with rounded corners*
0 $1 Rounding radius*
0 $2 $3 $4 $5 $6 $7 $8 $9 X,Y pos of 4 corners*
0 Add a 4 corners polygon primitive as box body*
4,1,4,$2,$3,$4,$5,$6,$7,$8,$9,$2,$3,0*
0 Add four circle primitives for the rounded corners*
1,1,$1+$1,$2,$3*
1,1,$1+$1,$4,$5*
1,1,$1+$1,$6,$7*
1,1,$1+$1,$8,$9*
0 Add four rect primitives between the rounded corners*
20,1,$1+$1,$2,$3,$4,$5,0*
20,1,$1+$1,$4,$5,$6,$7,0*
20,1,$1+$1,$6,$7,$8,$9,0*
20,1,$1+$1,$8,$9,$2,$3,0*%
G04 Aperture macros list end*
%TA.AperFunction,ComponentPad*%
%ADD10RoundRect,0.250000X0.625000X-0.350000X0.625000X0.350000X-0.625000X0.350000X-0.625000X-0.350000X0*%
%TD*%
%TA.AperFunction,ComponentPad*%
%ADD11O,1.750000X1.200000*%
%TD*%
%TA.AperFunction,ComponentPad*%
%ADD12RoundRect,0.250000X-0.600000X-0.725000X0.600000X-0.725000X0.600000X0.725000X-0.600000X0.725000X0*%
%TD*%
%TA.AperFunction,ComponentPad*%
%ADD13O,1.700000X1.950000*%
%TD*%
%TA.AperFunction,ComponentPad*%
%ADD14RoundRect,0.250000X-0.625000X0.350000X-0.625000X-0.350000X0.625000X-0.350000X0.625000X0.350000X0*%
%TD*%
%TA.AperFunction,Conductor*%
%ADD15C,0.250000*%
%TD*%
G04 APERTURE END LIST*
D10*
%TO.P,J3,1,Pin_1*%
%TO.N,+5V*%
X127100000Y-98110000D03*
D11*
%TO.P,J3,2,Pin_2*%
%TO.N,3*%
X127100000Y-96110000D03*
%TD*%
D12*
%TO.P,J5,1,Pin_1*%
%TO.N,+5V*%
X135200000Y-108690000D03*
D13*
%TO.P,J5,2,Pin_2*%
%TO.N,Net-(J1-Pad2)*%
X137700000Y-108690000D03*
%TO.P,J5,3,Pin_3*%
%TO.N,2*%
X140200000Y-108690000D03*
%TO.P,J5,4,Pin_4*%
%TO.N,3*%
X142700000Y-108690000D03*
%TO.P,J5,5,Pin_5*%
%TO.N,4*%
X145200000Y-108690000D03*
%TO.P,J5,6,Pin_6*%
%TO.N,GND*%
X147700000Y-108690000D03*
%TD*%
D11*
%TO.P,J1,2,Pin_2*%
%TO.N,Net-(J1-Pad2)*%
X155470000Y-97640000D03*
D14*
%TO.P,J1,1,Pin_1*%
%TO.N,+5V*%
X155470000Y-95640000D03*
%TD*%
D11*
%TO.P,J2,2,Pin_2*%
%TO.N,2*%
X155670000Y-105820000D03*
D14*
%TO.P,J2,1,Pin_1*%
%TO.N,+5V*%
X155670000Y-103820000D03*
%TD*%
D10*
%TO.P,J4,1,Pin_1*%
%TO.N,+5V*%
X126820000Y-105540000D03*
D11*
%TO.P,J4,2,Pin_2*%
%TO.N,4*%
X126820000Y-103540000D03*
%TD*%
D15*
%TO.N,+5V*%
X128240000Y-106960000D02*
X126820000Y-105540000D01*
X135200000Y-108690000D02*
X133470000Y-106960000D01*
X133470000Y-106960000D02*
X128240000Y-106960000D01*
X124660000Y-103380000D02*
X126820000Y-105540000D01*
X124660000Y-100550000D02*
X124660000Y-103380000D01*
X127100000Y-98110000D02*
X124660000Y-100550000D01*
X158410000Y-99690000D02*
X158410000Y-98580000D01*
X156670000Y-101430000D02*
X158410000Y-99690000D01*
X156670000Y-102820000D02*
X156670000Y-101430000D01*
X158410000Y-98580000D02*
X155470000Y-95640000D01*
X155670000Y-103820000D02*
X156670000Y-102820000D01*
X152430000Y-103820000D02*
X155670000Y-103820000D01*
X149430000Y-110590000D02*
X150010000Y-110010000D01*
X137100000Y-110590000D02*
X149430000Y-110590000D01*
X150010000Y-110010000D02*
X150010000Y-106240000D01*
X135200000Y-108690000D02*
X137100000Y-110590000D01*
X150010000Y-106240000D02*
X152430000Y-103820000D01*
%TD*%
M02*
